<svg width="104" height="85" viewBox="0 0 104 85" fill="none" xmlns="http://www.w3.org/2000/svg">
<g style="mix-blend-mode:lighten">
<g style="mix-blend-mode:lighten">
<path d="M91.145 34.1386C97.1443 38.09 97.1443 46.8899 91.145 50.8413L63.6602 68.9437C57.0111 73.323 48.1597 68.5541 48.1597 60.5924L48.1597 24.3875C48.1597 16.4258 57.0111 11.6569 63.6602 16.0362L91.145 34.1386Z" fill="#16F1CA" fill-opacity="0.7"/>
</g>
<g style="mix-blend-mode:lighten">
<path d="M78.1564 34.1386C84.1558 38.09 84.1558 46.8899 78.1564 50.8413L50.6717 68.9437C44.0226 73.323 35.1712 68.5541 35.1712 60.5924L35.1712 24.3875C35.1712 16.4258 44.0226 11.6569 50.6717 16.0362L78.1564 34.1386Z" fill="#BA00FB" fill-opacity="0.7"/>
</g>
<g style="mix-blend-mode:lighten">
<path d="M62.385 34.1386C68.3843 38.09 68.3843 46.8899 62.3849 50.8413L34.9002 68.9437C28.2511 73.323 19.3997 68.5541 19.3997 60.5924L19.3997 24.3875C19.3997 16.4258 28.2511 11.6569 34.9002 16.0362L62.385 34.1386Z" fill="#8416F1" fill-opacity="0.7"/>
</g>
<g style="mix-blend-mode:luminosity">
<path d="M54.65 55C53.51 55 52.7 54.78 52.22 54.34C51.76 53.88 51.53 53.21 51.53 52.33C51.53 52.09 51.54 51.69 51.56 51.13C51.6 50.55 51.65 49.87 51.71 49.09C51.77 48.31 51.83 47.46 51.89 46.54C51.97 45.6 52.05 44.65 52.13 43.69C52.29 41.67 52.4 40.03 52.46 38.77C52.54 37.51 52.6 36.52 52.64 35.8C52.7 34.9 52.76 34.33 52.82 34.09C52.88 33.83 53.01 33.7 53.21 33.7C53.83 33.7 54.46 33.69 55.1 33.67C55.76 33.63 56.39 33.59 56.99 33.55C57.59 33.51 58.15 33.48 58.67 33.46C59.21 33.42 59.69 33.4 60.11 33.4C61.39 33.4 62.49 33.56 63.41 33.88C64.33 34.2 65.07 34.65 65.63 35.23C66.21 35.81 66.63 36.51 66.89 37.33C67.17 38.15 67.31 39.07 67.31 40.09C67.31 41.65 67 43.04 66.38 44.26C65.76 45.48 64.77 46.41 63.41 47.05L65.93 50.65C66.39 51.33 66.74 51.86 66.98 52.24C67.22 52.6 67.34 52.87 67.34 53.05C67.34 53.19 67.25 53.39 67.07 53.65C66.91 53.89 66.66 54.14 66.32 54.4C66 54.64 65.6 54.85 65.12 55.03C64.66 55.21 64.14 55.3 63.56 55.3C62.92 55.3 62.36 55.09 61.88 54.67C61.42 54.25 61 53.7 60.62 53.02C60.26 52.32 59.94 51.52 59.66 50.62C59.4 49.72 59.15 48.78 58.91 47.8C58.19 47.76 57.6 47.69 57.14 47.59C57.08 48.47 57.02 49.31 56.96 50.11C56.9 50.91 56.85 51.63 56.81 52.27C56.77 52.89 56.73 53.41 56.69 53.83C56.65 54.23 56.63 54.47 56.63 54.55C56.61 54.71 56.57 54.83 56.51 54.91C56.45 54.97 56.33 55 56.15 55H54.65ZM59.51 37.9C59.27 37.9 59 37.92 58.7 37.96C58.4 37.98 58.08 38.01 57.74 38.05C57.7 38.75 57.65 39.59 57.59 40.57C57.55 41.53 57.49 42.56 57.41 43.66C58.11 43.82 58.72 43.9 59.24 43.9C59.86 43.9 60.36 43.78 60.74 43.54C61.14 43.3 61.45 43.01 61.67 42.67C61.89 42.31 62.03 41.93 62.09 41.53C62.17 41.13 62.21 40.77 62.21 40.45C62.21 39.63 62.01 39 61.61 38.56C61.21 38.12 60.51 37.9 59.51 37.9Z" fill="#AE2323" fill-opacity="0.6"/>
</g>
<g style="mix-blend-mode:luminosity">
<path d="M45.3599 56.0114C44.0159 56.0114 43.0559 55.7474 42.4799 55.2194C41.9039 54.6914 41.6159 53.9354 41.6159 52.9514C41.6159 52.4234 41.6639 51.4874 41.7599 50.1434C41.8559 48.7994 41.9639 47.2874 42.0839 45.6074H35.6759L34.9559 55.4714C34.9319 55.6634 34.8839 55.8074 34.8119 55.9034C34.7399 55.9754 34.5959 56.0114 34.3799 56.0114H32.3999C31.0559 56.0114 30.0959 55.7474 29.5199 55.2194C28.9439 54.6914 28.6559 53.9354 28.6559 52.9514C28.6559 52.4714 28.6919 51.6554 28.7639 50.5034C28.8359 49.3274 28.9319 47.9954 29.0519 46.5074C29.1719 45.0194 29.2919 43.4474 29.4119 41.7914C29.5319 40.1354 29.6519 38.5754 29.7719 37.1114C29.8919 35.6474 29.9879 34.3634 30.0599 33.2594C30.1319 32.1554 30.1679 31.3994 30.1679 30.9914C30.1679 30.6314 30.3599 30.4514 30.7439 30.4514H32.7239C34.1879 30.4514 35.1719 30.7634 35.6759 31.3874C36.1799 32.0114 36.4319 32.9354 36.4319 34.1594C36.4319 34.3514 36.3959 35.0354 36.3239 36.2114C36.2519 37.3634 36.1559 38.7554 36.0359 40.3874H42.4799C42.5519 39.3314 42.6239 38.2994 42.6959 37.2914C42.7919 36.2834 42.8639 35.3594 42.9119 34.5194C42.9839 33.6794 43.0319 32.9594 43.0559 32.3594C43.1039 31.7354 43.1279 31.2794 43.1279 30.9914C43.1279 30.6314 43.3199 30.4514 43.7039 30.4514H45.6839C47.1479 30.4514 48.1319 30.7634 48.6359 31.3874C49.1399 32.0114 49.3919 32.9354 49.3919 34.1594C49.3919 34.2794 49.3679 34.6634 49.3199 35.3114C49.2959 35.9594 49.2479 36.7754 49.1759 37.7594C49.1039 38.7434 49.0199 39.8474 48.9239 41.0714C48.8519 42.2714 48.7679 43.5074 48.6719 44.7794C48.5999 46.0514 48.5159 47.2994 48.4199 48.5234C48.3479 49.7234 48.2759 50.8154 48.2039 51.7994C48.1319 52.7834 48.0719 53.6114 48.0239 54.2834C47.9759 54.9314 47.9399 55.3274 47.9159 55.4714C47.8919 55.6634 47.8439 55.8074 47.7719 55.9034C47.6999 55.9754 47.5559 56.0114 47.3399 56.0114H45.3599Z" fill="white" fill-opacity="0.8"/>
</g>
</g>
</svg>
