<svg width="753" height="598" viewBox="0 0 753 598" fill="none" xmlns="http://www.w3.org/2000/svg">
<g style="mix-blend-mode:difference">
<g style="mix-blend-mode:lighten">
<path d="M670.772 246.689C709.066 271.05 709.066 326.95 670.772 351.311L441.251 497.327C399.976 523.586 345.972 493.936 345.972 445.016V152.984C345.972 104.064 399.976 74.4145 441.251 100.673L670.772 246.689Z" fill="#16F1CA" fill-opacity="0.7"/>
</g>
<g style="mix-blend-mode:lighten">
<path d="M575.798 246.689C614.093 271.05 614.092 326.95 575.798 351.311L346.278 497.327C305.002 523.586 250.998 493.936 250.998 445.016V152.984C250.998 104.064 305.002 74.4145 346.278 100.673L575.798 246.689Z" fill="#BA00FB" fill-opacity="0.7"/>
</g>
<g style="mix-blend-mode:lighten">
<path d="M460.476 246.689C498.77 271.05 498.77 326.95 460.476 351.311L230.955 497.327C189.68 523.586 135.676 493.936 135.676 445.016V152.984C135.676 104.064 189.68 74.4145 230.955 100.673L460.476 246.689Z" fill="#8416F1" fill-opacity="0.7"/>
</g>
<g style="mix-blend-mode:luminosity">
<path d="M377.406 382.226C369.54 382.226 363.951 380.708 360.639 377.672C357.465 374.498 355.878 369.875 355.878 363.803C355.878 362.147 355.947 359.387 356.085 355.523C356.361 351.521 356.706 346.829 357.12 341.447C357.534 336.065 357.948 330.2 358.362 323.852C358.914 317.366 359.466 310.811 360.018 304.187C361.122 290.249 361.881 278.933 362.295 270.239C362.847 261.545 363.261 254.714 363.537 249.746C363.951 243.536 364.365 239.603 364.779 237.947C365.193 236.153 366.09 235.256 367.47 235.256C371.748 235.256 376.095 235.187 380.511 235.049C385.065 234.773 389.412 234.497 393.552 234.221C397.692 233.945 401.556 233.738 405.144 233.6C408.87 233.324 412.182 233.186 415.08 233.186C423.912 233.186 431.502 234.29 437.85 236.498C444.198 238.706 449.304 241.811 453.168 245.813C457.17 249.815 460.068 254.645 461.862 260.303C463.794 265.961 464.76 272.309 464.76 279.347C464.76 290.111 462.621 299.702 458.343 308.12C454.065 316.538 447.234 322.955 437.85 327.371L455.238 352.211C458.412 356.903 460.827 360.56 462.483 363.182C464.139 365.666 464.967 367.529 464.967 368.771C464.967 369.737 464.346 371.117 463.104 372.911C462 374.567 460.275 376.292 457.929 378.086C455.721 379.742 452.961 381.191 449.649 382.433C446.475 383.675 442.887 384.296 438.885 384.296C434.469 384.296 430.605 382.847 427.293 379.949C424.119 377.051 421.221 373.256 418.599 368.564C416.115 363.734 413.907 358.214 411.975 352.004C410.181 345.794 408.456 339.308 406.8 332.546C401.832 332.27 397.761 331.787 394.587 331.097C394.173 337.169 393.759 342.965 393.345 348.485C392.931 354.005 392.586 358.973 392.31 363.389C392.034 367.667 391.758 371.255 391.482 374.153C391.206 376.913 391.068 378.569 391.068 379.121C390.93 380.225 390.654 381.053 390.24 381.605C389.826 382.019 388.998 382.226 387.756 382.226H377.406ZM410.94 264.236C409.284 264.236 407.421 264.374 405.351 264.65C403.281 264.788 401.073 264.995 398.727 265.271C398.451 270.101 398.106 275.897 397.692 282.659C397.416 289.283 397.002 296.39 396.45 303.98C401.28 305.084 405.489 305.636 409.077 305.636C413.355 305.636 416.805 304.808 419.427 303.152C422.187 301.496 424.326 299.495 425.844 297.149C427.362 294.665 428.328 292.043 428.742 289.283C429.294 286.523 429.57 284.039 429.57 281.831C429.57 276.173 428.19 271.826 425.43 268.79C422.67 265.754 417.84 264.236 410.94 264.236Z" fill="#AE2323" fill-opacity="0.4"/>
</g>
<g style="mix-blend-mode:luminosity">
<path d="M310.442 386.243C301.706 386.243 295.466 384.527 291.722 381.095C287.978 377.663 286.106 372.749 286.106 366.353C286.106 362.921 286.418 356.837 287.042 348.101C287.666 339.365 288.368 329.537 289.148 318.617H247.496L242.816 382.733C242.66 383.981 242.348 384.917 241.88 385.541C241.412 386.009 240.476 386.243 239.072 386.243H226.202C217.466 386.243 211.226 384.527 207.482 381.095C203.738 377.663 201.866 372.749 201.866 366.353C201.866 363.233 202.1 357.929 202.568 350.441C203.036 342.797 203.66 334.139 204.44 324.467C205.22 314.795 206 304.577 206.78 293.813C207.56 283.049 208.34 272.909 209.12 263.393C209.9 253.877 210.524 245.531 210.992 238.355C211.46 231.179 211.694 226.265 211.694 223.613C211.694 221.273 212.942 220.103 215.438 220.103H228.308C237.824 220.103 244.22 222.131 247.496 226.187C250.772 230.243 252.41 236.249 252.41 244.205C252.41 245.453 252.176 249.899 251.708 257.543C251.24 265.031 250.616 274.079 249.836 284.687H291.722C292.19 277.823 292.658 271.115 293.126 264.563C293.75 258.011 294.218 252.005 294.53 246.545C294.998 241.085 295.31 236.405 295.466 232.505C295.778 228.449 295.934 225.485 295.934 223.613C295.934 221.273 297.182 220.103 299.678 220.103H312.548C322.064 220.103 328.46 222.131 331.736 226.187C335.012 230.243 336.65 236.249 336.65 244.205C336.65 244.985 336.494 247.481 336.182 251.693C336.026 255.905 335.714 261.209 335.246 267.605C334.778 274.001 334.232 281.177 333.608 289.133C333.14 296.933 332.594 304.967 331.97 313.235C331.502 321.503 330.956 329.615 330.332 337.571C329.864 345.371 329.396 352.469 328.928 358.865C328.46 365.261 328.07 370.643 327.758 375.011C327.446 379.223 327.212 381.797 327.056 382.733C326.9 383.981 326.588 384.917 326.12 385.541C325.652 386.009 324.716 386.243 323.312 386.243H310.442Z" fill="white" fill-opacity="0.6"/>
</g>
</g>
</svg>
